<svg width="60" height="63" viewBox="0 0 60 63" fill="none" xmlns="http://www.w3.org/2000/svg">
<path d="M47.5 8.5H12.5C9.75 8.5 7.5 10.75 7.5 13.5V48.5C7.5 51.25 9.75 53.5 12.5 53.5H47.5C50.25 53.5 52.5 51.25 52.5 48.5V13.5C52.5 10.75 50.25 8.5 47.5 8.5ZM30 16C34.825 16 38.75 19.925 38.75 24.75C38.75 29.575 34.825 33.5 30 33.5C25.175 33.5 21.25 29.575 21.25 24.75C21.25 19.925 25.175 16 30 16ZM47.5 48.5H12.5V47.925C12.5 46.375 13.2 44.925 14.4 43.975C18.675 40.55 24.1 38.5 30 38.5C35.9 38.5 41.325 40.55 45.6 43.975C46.8 44.925 47.5 46.4 47.5 47.925V48.5Z" fill="#333333"/>
</svg>
