<svg width="46" height="46" viewBox="0 0 46 46" fill="none" xmlns="http://www.w3.org/2000/svg">
<g clip-path="url(#clip0_1_24)">
<path d="M40.5 0.5H5.5C2.75 0.5 0.5 2.75 0.5 5.5V40.5C0.5 43.25 2.75 45.5 5.5 45.5H40.5C43.25 45.5 45.5 43.25 45.5 40.5V5.5C45.5 2.75 43.25 0.5 40.5 0.5ZM23 8C27.825 8 31.75 11.925 31.75 16.75C31.75 21.575 27.825 25.5 23 25.5C18.175 25.5 14.25 21.575 14.25 16.75C14.25 11.925 18.175 8 23 8ZM40.5 40.5H5.5V39.925C5.5 38.375 6.2 36.925 7.4 35.975C11.675 32.55 17.1 30.5 23 30.5C28.9 30.5 34.325 32.55 38.6 35.975C39.8 36.925 40.5 38.4 40.5 39.925V40.5Z" fill="#333333"/>
</g>
<defs>
<clipPath id="clip0_1_24">
<rect width="46" height="46" fill="white"/>
</clipPath>
</defs>
</svg>
