<svg width="32" height="32" viewBox="0 0 32 32" fill="none" xmlns="http://www.w3.org/2000/svg">
<g clip-path="url(#clip0_3_368)">
<symbol id="form-exit">
<path fill-rule="evenodd" clip-rule="evenodd" d="M31.4152 3.51509C31.6076 3.32291 31.7603 3.09472 31.8645 2.84354C31.9687 2.59236 32.0225 2.32311 32.0226 2.05116C32.0228 1.77922 31.9694 1.5099 31.8655 1.25859C31.7616 1.00728 31.6092 0.778901 31.417 0.586488C31.2248 0.394076 30.9966 0.241399 30.7455 0.137176C30.4943 0.0329524 30.225 -0.0207768 29.9531 -0.0209439C29.6811 -0.0211111 29.4118 0.0322871 29.1605 0.136202C28.9092 0.240116 28.6808 0.392512 28.4884 0.584689L16 13.0731L3.51521 0.584689C3.12662 0.196093 2.59957 -0.0222168 2.05001 -0.0222168C1.50045 -0.0222168 0.973406 0.196093 0.584811 0.584689C0.196215 0.973284 -0.0220947 1.50033 -0.0220947 2.04989C-0.0220947 2.59945 0.196215 3.12649 0.584811 3.51509L13.0732 15.9999L0.584811 28.4847C0.392398 28.6771 0.239768 28.9055 0.135635 29.1569C0.0315016 29.4083 -0.0220947 29.6778 -0.0220947 29.9499C-0.0220947 30.222 0.0315016 30.4914 0.135635 30.7428C0.239768 30.9942 0.392398 31.2227 0.584811 31.4151C0.973406 31.8037 1.50045 32.022 2.05001 32.022C2.32212 32.022 2.59157 31.9684 2.84297 31.8643C3.09437 31.7601 3.3228 31.6075 3.51521 31.4151L16 18.9267L28.4884 31.4151C28.877 31.8032 29.4039 32.0211 29.9531 32.0207C30.5023 32.0204 31.0289 31.8019 31.417 31.4133C31.8051 31.0247 32.023 30.4978 32.0226 29.9486C32.0223 29.3994 31.8038 28.8728 31.4152 28.4847L18.9268 15.9999L31.4152 3.51509Z" fill="#F3F3F3"/>
</g>
<defs>
<clipPath id="clip0_3_368">
<rect width="32" height="32" fill="white"/>
</clipPath>
</defs>
</symbol>
</svg>
