<svg width="93" height="101" viewBox="0 0 93 101" fill="none" xmlns="http://www.w3.org/2000/svg">
<g clip-path="url(#clip0_1_31)">
<path d="M76.0593 7.12523C68.5963 2.46385 58.375 0 46.5 0C34.625 0 24.4037 2.46385 16.9407 7.12523C8.4453 12.4317 3.95474 20.3241 3.95474 29.9495C3.95474 39.3553 9.70366 56.3418 18.2601 72.2184C22.5835 80.2402 27.1747 87.0573 31.5374 91.9321C36.9222 97.9491 41.9564 101 46.5 101C51.0436 101 56.0778 97.9491 61.4626 91.9321C65.8253 87.0573 70.4167 80.2402 74.74 72.2184C83.2963 56.3418 89.0453 39.3551 89.0453 29.9495C89.0453 20.3241 84.5547 12.4319 76.0593 7.12523Z" fill="#333333"/>
<rect y="70" width="93" height="18" rx="9" fill="#333333"/>
<path d="M2.96 85.1C2.78667 85.1 2.64667 85.08 2.54 85.04C2.43333 85.0133 2.38 84.96 2.38 84.88C2.38 84.7867 2.43333 84.7133 2.54 84.66C2.64667 84.6067 2.81333 84.56 3.04 84.52C3.37333 84.4533 3.64667 84.2933 3.86 84.04C4.07333 83.7867 4.21333 83.4267 4.28 82.96C4.44 81.76 4.58 80.62 4.7 79.54C4.82 78.4467 4.91333 77.4667 4.98 76.6C5.06 75.72 5.1 75 5.1 74.44C5.1 74.3333 5.1 74.22 5.1 74.1C5.1 73.98 5.09333 73.8733 5.08 73.78C5.06667 73.6733 5.04667 73.5667 5.02 73.46C4.99333 73.34 4.91333 73.2267 4.78 73.12C4.54 72.92 4.30667 72.7867 4.08 72.72C3.85333 72.64 3.58667 72.5733 3.28 72.52C3.14667 72.4933 3.04 72.4467 2.96 72.38C2.88 72.3 2.84 72.2133 2.84 72.12C2.84 72.0133 2.9 71.9533 3.02 71.94C3.15333 71.9133 3.32 71.9 3.52 71.9C3.65333 71.9 3.85333 71.9067 4.12 71.92C4.4 71.9333 4.7 71.9533 5.02 71.98C5.34 72.0067 5.63333 72.0267 5.9 72.04C6.18 72.0533 6.38667 72.06 6.52 72.06C6.61333 72.06 6.69333 72.0867 6.76 72.14C6.82667 72.1933 6.87333 72.2733 6.9 72.38C6.96667 72.62 7.03333 72.8733 7.1 73.14C7.16667 73.4067 7.24667 73.6667 7.34 73.92L10.5 81.94C10.54 82.0333 10.6133 82.0933 10.72 82.12C10.8267 82.1333 10.9067 82.0933 10.96 82L14.9 73.8C14.9667 73.5733 15.0333 73.32 15.1 73.04C15.1667 72.76 15.22 72.5133 15.26 72.3C15.3 72.1267 15.3667 72.04 15.46 72.04H16.18C16.58 72.04 17 72.0133 17.44 71.96C17.8933 71.9067 18.2333 71.88 18.46 71.88C18.5267 71.88 18.6133 71.8933 18.72 71.92C18.8267 71.9333 18.88 71.9867 18.88 72.08C18.88 72.1733 18.84 72.2467 18.76 72.3C18.6933 72.3533 18.56 72.42 18.36 72.5C18.1867 72.5667 17.9933 72.64 17.78 72.72C17.5667 72.8 17.3667 72.88 17.18 72.96C17.0467 73.0133 16.9333 73.1067 16.84 73.24C16.7467 73.36 16.7 73.4933 16.7 73.64C16.7 74.5733 16.7133 75.4533 16.74 76.28C16.78 77.0933 16.82 77.88 16.86 78.64C16.9 79.3867 16.9467 80.1267 17 80.86C17.0533 81.5933 17.1 82.34 17.14 83.1C17.1667 83.5133 17.3 83.8333 17.54 84.06C17.78 84.2733 18.1467 84.4267 18.64 84.52C18.8667 84.56 19.0333 84.6067 19.14 84.66C19.2467 84.7133 19.3 84.7867 19.3 84.88C19.3 84.96 19.2467 85.0133 19.14 85.04C19.0333 85.08 18.8933 85.1 18.72 85.1C18.36 85.1 18.06 85.0867 17.82 85.06C17.5933 85.0467 17.3733 85.0333 17.16 85.02C16.9467 85.0067 16.6867 85 16.38 85C16.1133 85 15.8867 85.0067 15.7 85.02C15.5267 85.0333 15.3333 85.0467 15.12 85.06C14.92 85.0867 14.64 85.1 14.28 85.1C14.1067 85.1 13.9667 85.08 13.86 85.04C13.7533 85.0133 13.7 84.96 13.7 84.88C13.7 84.7867 13.7533 84.7133 13.86 84.66C13.9667 84.5933 14.1333 84.5467 14.36 84.52C14.7467 84.4667 15.0133 84.3333 15.16 84.12C15.3067 83.8933 15.38 83.5467 15.38 83.08C15.38 82.12 15.3667 81.2533 15.34 80.48C15.3267 79.7067 15.3 78.9467 15.26 78.2C15.22 77.44 15.18 76.6133 15.14 75.72C15.1267 75.5733 15.0867 75.5067 15.02 75.52C14.9533 75.52 14.8867 75.5867 14.82 75.72L10.22 85.1C10.1933 85.1667 10.1333 85.2 10.04 85.2C9.94667 85.2133 9.88667 85.1733 9.86 85.08C9.34 83.52 8.78 81.9867 8.18 80.48C7.59333 78.96 6.92667 77.3267 6.18 75.58C6.15333 75.5133 6.10667 75.48 6.04 75.48C5.97333 75.48 5.93333 75.5133 5.92 75.58C5.8 76.5133 5.68667 77.3733 5.58 78.16C5.48667 78.9333 5.41333 79.7 5.36 80.46C5.30667 81.22 5.28 82.0533 5.28 82.96C5.28 83.32 5.39333 83.6533 5.62 83.96C5.84667 84.2533 6.16667 84.44 6.58 84.52C6.80667 84.56 6.97333 84.6067 7.08 84.66C7.18667 84.7133 7.24 84.7867 7.24 84.88C7.24 84.96 7.18667 85.0133 7.08 85.04C6.97333 85.08 6.83333 85.1 6.66 85.1C6.3 85.1 6.02667 85.0867 5.84 85.06C5.66667 85.0467 5.50667 85.0333 5.36 85.02C5.22667 85.0067 5.03333 85 4.78 85C4.54 85 4.35333 85.0067 4.22 85.02C4.08667 85.0333 3.93333 85.0467 3.76 85.06C3.58667 85.0867 3.32 85.1 2.96 85.1ZM27.3473 85.38C27.254 85.38 27.2073 85.3267 27.2073 85.22C27.2073 85.0867 27.2207 84.8933 27.2473 84.64C27.2873 84.3733 27.3073 84.1533 27.3073 83.98C27.3073 83.9533 27.3073 83.9333 27.3073 83.92C27.3073 83.8933 27.3073 83.8733 27.3073 83.86C26.7873 84.3667 26.2607 84.7333 25.7273 84.96C25.2073 85.1733 24.634 85.28 24.0073 85.28C23.5807 85.28 23.194 85.1867 22.8473 85C22.5007 84.8267 22.2273 84.5667 22.0273 84.22C21.8273 83.86 21.7273 83.42 21.7273 82.9V78.84C21.7273 78.5467 21.6607 78.3133 21.5273 78.14C21.394 77.9667 21.174 77.82 20.8673 77.7C20.8007 77.6733 20.7407 77.64 20.6873 77.6C20.634 77.56 20.6073 77.4867 20.6073 77.38C20.6073 77.26 20.634 77.18 20.6873 77.14C20.754 77.1 20.8273 77.0733 20.9073 77.06C21.3607 77.0333 21.7073 77 21.9473 76.96C22.2007 76.9067 22.514 76.8333 22.8873 76.74C22.9273 76.7267 22.954 76.72 22.9673 76.72C22.994 76.72 23.0207 76.72 23.0473 76.72C23.194 76.72 23.2607 76.8133 23.2473 77C23.2073 77.3067 23.174 77.5667 23.1473 77.78C23.134 77.98 23.1273 78.2333 23.1273 78.54V82.44C23.1273 82.76 23.2073 83.06 23.3673 83.34C23.5273 83.6067 23.734 83.8267 23.9873 84C24.254 84.1733 24.5273 84.26 24.8073 84.26C25.154 84.26 25.454 84.24 25.7073 84.2C25.974 84.16 26.234 84.0467 26.4873 83.86C26.634 83.7533 26.8207 83.58 27.0473 83.34C27.274 83.1 27.3873 82.7733 27.3873 82.36V78.7C27.3873 78.42 27.3007 78.2133 27.1273 78.08C26.9673 77.9333 26.7807 77.8333 26.5673 77.78C26.354 77.7267 26.1807 77.7 26.0473 77.7C25.9273 77.7 25.8273 77.68 25.7473 77.64C25.6673 77.5867 25.6273 77.4933 25.6273 77.36C25.6273 77.24 25.6673 77.16 25.7473 77.12C25.8407 77.08 25.9407 77.06 26.0473 77.06C26.4607 77.0467 26.8007 77.0333 27.0673 77.02C27.3473 76.9933 27.594 76.96 27.8073 76.92C28.034 76.8667 28.2673 76.8067 28.5073 76.74C28.534 76.7267 28.5673 76.72 28.6073 76.72C28.6473 76.7067 28.6807 76.7 28.7073 76.7C28.8807 76.7 28.9673 76.7733 28.9673 76.92C28.9673 76.9333 28.9607 76.96 28.9473 77C28.9473 77.0267 28.9407 77.06 28.9273 77.1C28.914 77.14 28.894 77.2533 28.8673 77.44C28.854 77.6267 28.834 77.82 28.8073 78.02C28.794 78.22 28.7873 78.3733 28.7873 78.48V83.1C28.7873 83.46 28.8207 83.72 28.8873 83.88C28.9673 84.0267 29.054 84.1 29.1473 84.1C29.254 84.1 29.4073 84.0933 29.6073 84.08C29.8207 84.0533 29.974 84.04 30.0673 84.04C30.134 84.04 30.2007 84.0533 30.2673 84.08C30.334 84.1067 30.3673 84.18 30.3673 84.3C30.3673 84.4067 30.3407 84.48 30.2873 84.52C30.234 84.5467 30.1673 84.5667 30.0873 84.58C29.5673 84.6467 29.1207 84.7467 28.7473 84.88C28.374 85.0133 28.0407 85.14 27.7473 85.26C27.7073 85.2733 27.6473 85.2933 27.5673 85.32C27.4873 85.36 27.414 85.38 27.3473 85.38ZM33.4542 85.28C33.0409 85.28 32.6542 85.2133 32.2942 85.08C31.9342 84.96 31.6276 84.7867 31.3742 84.56C31.3076 84.4133 31.2542 84.1667 31.2142 83.82C31.1876 83.4733 31.1676 83.1867 31.1542 82.96C31.1542 82.84 31.2409 82.78 31.4142 82.78C31.4676 82.78 31.5142 82.7933 31.5542 82.82C31.6076 82.8333 31.6409 82.8667 31.6542 82.92C31.8276 83.5733 32.1009 84.04 32.4742 84.32C32.8609 84.6 33.2476 84.74 33.6342 84.74C34.0209 84.74 34.3476 84.6133 34.6142 84.36C34.8942 84.0933 35.0342 83.7667 35.0342 83.38C35.0342 83.02 34.9142 82.7133 34.6742 82.46C34.4342 82.1933 34.0142 81.8733 33.4142 81.5C32.9609 81.22 32.5942 80.9533 32.3142 80.7C32.0342 80.4467 31.8276 80.1867 31.6942 79.92C31.5742 79.6533 31.5142 79.3533 31.5142 79.02C31.5142 78.5933 31.6142 78.2067 31.8142 77.86C32.0142 77.5133 32.3142 77.24 32.7142 77.04C33.1142 76.8267 33.6142 76.72 34.2142 76.72C34.6142 76.72 34.9476 76.76 35.2142 76.84C35.4809 76.92 35.6809 77.0067 35.8142 77.1C35.9209 77.2467 36.0076 77.48 36.0742 77.8C36.1542 78.1067 36.1942 78.4 36.1942 78.68C36.1942 78.7733 36.1276 78.82 35.9942 78.82C35.9142 78.82 35.8342 78.8067 35.7542 78.78C35.6876 78.74 35.6409 78.6933 35.6142 78.64C35.4409 78.2 35.2209 77.8667 34.9542 77.64C34.7009 77.4 34.3809 77.28 33.9942 77.28C33.6609 77.28 33.3609 77.38 33.0942 77.58C32.8409 77.78 32.7142 78.0733 32.7142 78.46C32.7142 78.7667 32.8076 79.04 32.9942 79.28C33.1942 79.52 33.5609 79.7933 34.0942 80.1C34.8676 80.54 35.4409 80.9533 35.8142 81.34C36.2009 81.7133 36.3942 82.2133 36.3942 82.84C36.3942 83.56 36.1209 84.1467 35.5742 84.6C35.0276 85.0533 34.3209 85.28 33.4542 85.28ZM37.9191 85.06C37.7991 85.06 37.6991 85.04 37.6191 85C37.5524 84.9733 37.5191 84.92 37.5191 84.84C37.5191 84.7333 37.5657 84.66 37.6591 84.62C37.7657 84.58 37.8724 84.5467 37.9791 84.52C38.2591 84.4533 38.4724 84.3733 38.6191 84.28C38.7657 84.1733 38.8391 84 38.8391 83.76V79.42C38.8391 79.06 38.7724 78.74 38.6391 78.46C38.5191 78.18 38.2857 78.0133 37.9391 77.96C37.8724 77.9467 37.8191 77.92 37.7791 77.88C37.7524 77.84 37.7391 77.78 37.7391 77.7C37.7391 77.5533 37.7991 77.4733 37.9191 77.46C38.4524 77.34 38.8924 77.18 39.2391 76.98C39.5857 76.7667 39.8457 76.5933 40.0191 76.46C40.1391 76.3667 40.2324 76.32 40.2991 76.32C40.3791 76.32 40.4191 76.3533 40.4191 76.42C40.4191 76.5267 40.3991 76.74 40.3591 77.06C40.3324 77.3667 40.3057 77.7133 40.2791 78.1C40.2524 78.4733 40.2391 78.8133 40.2391 79.12V83.76C40.2391 83.9867 40.3124 84.1533 40.4591 84.26C40.6191 84.3667 40.8324 84.4533 41.0991 84.52C41.2057 84.5467 41.3057 84.58 41.3991 84.62C41.5057 84.66 41.5591 84.7333 41.5591 84.84C41.5591 84.9867 41.4257 85.06 41.1591 85.06C40.9057 85.06 40.6991 85.0467 40.5391 85.02C40.3924 85.0067 40.2457 84.9933 40.0991 84.98C39.9657 84.9667 39.7791 84.96 39.5391 84.96C39.3124 84.96 39.1257 84.9667 38.9791 84.98C38.8324 84.9933 38.6857 85.0067 38.5391 85.02C38.3924 85.0467 38.1857 85.06 37.9191 85.06ZM39.5191 74.68C39.2391 74.68 38.9991 74.5867 38.7991 74.4C38.6124 74.2 38.5191 73.96 38.5191 73.68C38.5191 73.3867 38.6124 73.1467 38.7991 72.96C38.9991 72.76 39.2391 72.66 39.5191 72.66C39.8124 72.66 40.0524 72.76 40.2391 72.96C40.4391 73.1467 40.5391 73.3867 40.5391 73.68C40.5391 73.96 40.4391 74.2 40.2391 74.4C40.0524 74.5867 39.8124 74.68 39.5191 74.68ZM46.2014 85.3C45.5347 85.3 44.9281 85.1333 44.3814 84.8C43.8481 84.4533 43.4214 83.9867 43.1014 83.4C42.7947 82.8 42.6414 82.1333 42.6414 81.4C42.6414 80.5333 42.8281 79.7467 43.2014 79.04C43.5881 78.3333 44.1014 77.7733 44.7414 77.36C45.3814 76.9333 46.0881 76.72 46.8614 76.72C47.7281 76.72 48.4881 76.9533 49.1414 77.42C49.3014 77.54 49.3814 77.6667 49.3814 77.8C49.3814 77.9067 49.3347 78.0267 49.2414 78.16C49.1481 78.2933 49.0347 78.4067 48.9014 78.5C48.7681 78.58 48.6414 78.62 48.5214 78.62C48.4547 78.62 48.3881 78.6 48.3214 78.56C48.2547 78.5067 48.1814 78.4533 48.1014 78.4C47.8081 78.1733 47.4814 77.96 47.1214 77.76C46.7614 77.56 46.4614 77.46 46.2214 77.46C45.5681 77.46 45.0347 77.7667 44.6214 78.38C44.2214 78.98 44.0214 79.7733 44.0214 80.76C44.0214 81.3867 44.1547 81.9533 44.4214 82.46C44.7014 82.9667 45.0681 83.3667 45.5214 83.66C45.9881 83.9533 46.5014 84.1 47.0614 84.1C47.4481 84.1 47.7814 84.04 48.0614 83.92C48.3414 83.7867 48.6414 83.56 48.9614 83.24C48.9881 83.2133 49.0214 83.1933 49.0614 83.18C49.1014 83.1533 49.1347 83.14 49.1614 83.14C49.3081 83.14 49.3814 83.2333 49.3814 83.42C49.3814 83.5 49.3547 83.5933 49.3014 83.7C49.2614 83.7933 49.1881 83.9067 49.0814 84.04C48.8681 84.3067 48.6147 84.54 48.3214 84.74C48.0281 84.9267 47.7014 85.0667 47.3414 85.16C46.9947 85.2533 46.6147 85.3 46.2014 85.3ZM60.4498 85.24C60.3432 85.24 60.2698 85.1933 60.2298 85.1C60.1765 84.9533 60.1098 84.76 60.0298 84.52C59.9498 84.2667 59.8765 84.0533 59.8098 83.88L56.1498 74.06C56.0165 73.6867 55.8365 73.3733 55.6098 73.12C55.3832 72.8667 55.0965 72.6933 54.7498 72.6C54.5365 72.5333 54.3698 72.4667 54.2498 72.4C54.1432 72.3333 54.0898 72.2533 54.0898 72.16C54.0898 72.08 54.1432 72.0267 54.2498 72C54.3565 71.96 54.4965 71.94 54.6698 71.94C54.8832 71.94 55.1165 71.9467 55.3698 71.96C55.6365 71.9733 55.9165 71.9867 56.2098 72C56.5032 72 56.8032 72 57.1098 72C57.3765 72 57.6365 72 57.8898 72C58.1565 71.9867 58.3965 71.98 58.6098 71.98C58.8365 71.9667 59.0165 71.96 59.1498 71.96C59.3232 71.96 59.4632 71.98 59.5698 72.02C59.6765 72.0467 59.7298 72.1 59.7298 72.18C59.7298 72.2733 59.6765 72.36 59.5698 72.44C59.4632 72.5067 59.2965 72.5533 59.0698 72.58C58.6965 72.62 58.3832 72.7067 58.1298 72.84C57.8898 72.96 57.7698 73.1333 57.7698 73.36C57.7698 73.5867 57.7965 73.7867 57.8498 73.96C57.9165 74.12 57.9632 74.2467 57.9898 74.34L60.8698 81.94C60.8965 81.9933 60.9298 82.0267 60.9698 82.04C61.0098 82.0533 61.0498 82.0133 61.0898 81.92L63.8298 74.72C64.0965 74.0133 64.1098 73.5 63.8698 73.18C63.6432 72.8467 63.3165 72.6533 62.8898 72.6C62.6898 72.5733 62.5298 72.5267 62.4098 72.46C62.2898 72.38 62.2298 72.2933 62.2298 72.2C62.2298 72.12 62.2832 72.0667 62.3898 72.04C62.4965 72 62.6365 71.98 62.8098 71.98C62.9832 71.98 63.1765 71.98 63.3898 71.98C63.6032 71.98 63.8232 71.9867 64.0498 72C64.2898 72 64.5365 72 64.7898 72C65.1765 72 65.5898 71.9933 66.0298 71.98C66.4698 71.9533 66.8165 71.94 67.0698 71.94C67.2432 71.94 67.3832 71.96 67.4898 72C67.5965 72.0267 67.6498 72.08 67.6498 72.16C67.6498 72.2533 67.5965 72.3333 67.4898 72.4C67.3832 72.4533 67.2165 72.5067 66.9898 72.56C66.4965 72.6667 66.0832 72.8933 65.7498 73.24C65.4165 73.5867 65.1765 73.94 65.0298 74.3L61.2698 83.42C61.2432 83.4867 61.1898 83.6267 61.1098 83.84C61.0432 84.04 60.9698 84.26 60.8898 84.5C60.8098 84.74 60.7298 84.94 60.6498 85.1C60.6365 85.14 60.6098 85.1733 60.5698 85.2C60.5298 85.2267 60.4898 85.24 60.4498 85.24ZM68.0167 85.06C67.8967 85.06 67.7967 85.04 67.7167 85C67.6501 84.9733 67.6167 84.92 67.6167 84.84C67.6167 84.7333 67.6634 84.66 67.7567 84.62C67.8634 84.58 67.9701 84.5467 68.0767 84.52C68.3567 84.4533 68.5701 84.3733 68.7167 84.28C68.8634 84.1733 68.9367 84 68.9367 83.76V79.42C68.9367 79.06 68.8701 78.74 68.7367 78.46C68.6167 78.18 68.3834 78.0133 68.0367 77.96C67.9701 77.9467 67.9167 77.92 67.8767 77.88C67.8501 77.84 67.8367 77.78 67.8367 77.7C67.8367 77.5533 67.8967 77.4733 68.0167 77.46C68.5501 77.34 68.9901 77.18 69.3367 76.98C69.6834 76.7667 69.9434 76.5933 70.1167 76.46C70.2367 76.3667 70.3301 76.32 70.3967 76.32C70.4767 76.32 70.5167 76.3533 70.5167 76.42C70.5167 76.5267 70.4967 76.74 70.4567 77.06C70.4301 77.3667 70.4034 77.7133 70.3767 78.1C70.3501 78.4733 70.3367 78.8133 70.3367 79.12V83.76C70.3367 83.9867 70.4101 84.1533 70.5567 84.26C70.7167 84.3667 70.9301 84.4533 71.1967 84.52C71.3034 84.5467 71.4034 84.58 71.4967 84.62C71.6034 84.66 71.6567 84.7333 71.6567 84.84C71.6567 84.9867 71.5234 85.06 71.2567 85.06C71.0034 85.06 70.7967 85.0467 70.6367 85.02C70.4901 85.0067 70.3434 84.9933 70.1967 84.98C70.0634 84.9667 69.8767 84.96 69.6367 84.96C69.4101 84.96 69.2234 84.9667 69.0767 84.98C68.9301 84.9933 68.7834 85.0067 68.6367 85.02C68.4901 85.0467 68.2834 85.06 68.0167 85.06ZM69.6167 74.68C69.3367 74.68 69.0967 74.5867 68.8967 74.4C68.7101 74.2 68.6167 73.96 68.6167 73.68C68.6167 73.3867 68.7101 73.1467 68.8967 72.96C69.0967 72.76 69.3367 72.66 69.6167 72.66C69.9101 72.66 70.1501 72.76 70.3367 72.96C70.5367 73.1467 70.6367 73.3867 70.6367 73.68C70.6367 73.96 70.5367 74.2 70.3367 74.4C70.1501 74.5867 69.9101 74.68 69.6167 74.68ZM77.2191 85.28C76.9257 85.28 76.6324 85.2533 76.3391 85.2C76.0457 85.1467 75.7657 85.0867 75.4991 85.02C75.2057 84.94 74.9457 84.8667 74.7191 84.8C74.5057 84.7333 74.3657 84.7 74.2991 84.7C74.2191 84.7 74.1391 84.7267 74.0591 84.78C73.9924 84.8333 73.9257 84.8933 73.8591 84.96C73.7924 85.0267 73.7324 85.06 73.6791 85.06C73.6257 85.06 73.5657 85.04 73.4991 85C73.4324 84.9467 73.3991 84.8867 73.3991 84.82C73.3991 84.7 73.4191 84.4933 73.4591 84.2C73.5124 83.9067 73.5391 83.6333 73.5391 83.38V73.68C73.5391 73.3333 73.4524 73.0333 73.2791 72.78C73.1057 72.5267 72.8857 72.34 72.6191 72.22C72.5657 72.1933 72.5057 72.16 72.4391 72.12C72.3857 72.0667 72.3591 72 72.3591 71.92C72.3591 71.8533 72.3857 71.8067 72.4391 71.78C72.4924 71.7533 72.5457 71.7333 72.5991 71.72C72.7724 71.68 73.0057 71.6067 73.2991 71.5C73.6057 71.3933 73.8924 71.2867 74.1591 71.18C74.4257 71.0733 74.6057 71 74.6991 70.96C74.7791 70.92 74.8391 70.9 74.8791 70.9C74.9057 70.9 74.9324 70.9133 74.9591 70.94C74.9857 70.9667 74.9991 71 74.9991 71.04C74.9991 71.0933 74.9857 71.32 74.9591 71.72C74.9457 72.1067 74.9391 72.58 74.9391 73.14V77.24C74.9391 77.4933 74.9524 77.6667 74.9791 77.76C75.0057 77.84 75.0524 77.8867 75.1191 77.9C75.5324 77.5533 76.0124 77.2733 76.5591 77.06C77.1057 76.8333 77.5991 76.72 78.0391 76.72C78.7191 76.72 79.3257 76.8933 79.8591 77.24C80.4057 77.5867 80.8391 78.06 81.1591 78.66C81.4791 79.2467 81.6391 79.9133 81.6391 80.66C81.6391 81.5667 81.4524 82.3733 81.0791 83.08C80.7057 83.7733 80.1857 84.3133 79.5191 84.7C78.8657 85.0867 78.0991 85.28 77.2191 85.28ZM77.6791 84.66C78.1857 84.66 78.6191 84.5067 78.9791 84.2C79.3524 83.88 79.6391 83.4533 79.8391 82.92C80.0391 82.3733 80.1391 81.7667 80.1391 81.1C80.1391 80.58 80.0391 80.0467 79.8391 79.5C79.6524 78.9533 79.3524 78.4933 78.9391 78.12C78.5391 77.7467 78.0191 77.56 77.3791 77.56C76.8457 77.56 76.3791 77.6467 75.9791 77.82C75.5791 77.9933 75.2324 78.2133 74.9391 78.48V82.36C74.9391 82.8267 75.0657 83.2333 75.3191 83.58C75.5857 83.9267 75.9257 84.1933 76.3391 84.38C76.7657 84.5667 77.2124 84.66 77.6791 84.66ZM86.592 85.3C85.8587 85.3 85.2187 85.12 84.672 84.76C84.1254 84.4 83.6987 83.8933 83.392 83.24C83.0854 82.5733 82.932 81.8067 82.932 80.94C82.932 80.1667 83.1054 79.4667 83.452 78.84C83.812 78.2 84.2854 77.6867 84.872 77.3C85.4587 76.9133 86.0987 76.72 86.792 76.72C87.3254 76.72 87.7987 76.8267 88.212 77.04C88.6254 77.2533 88.9454 77.5533 89.172 77.94C89.412 78.3133 89.532 78.7467 89.532 79.24C89.532 79.6533 89.332 79.86 88.932 79.86H84.712C84.5254 79.86 84.392 79.9133 84.312 80.02C84.2454 80.1133 84.212 80.3067 84.212 80.6C84.212 81.24 84.352 81.8267 84.632 82.36C84.912 82.88 85.2854 83.3 85.752 83.62C86.2187 83.9267 86.732 84.08 87.292 84.08C87.692 84.08 88.052 84.0067 88.372 83.86C88.7054 83.7 88.9987 83.4733 89.252 83.18C89.3054 83.1133 89.3454 83.0733 89.372 83.06C89.3987 83.0333 89.432 83.02 89.472 83.02C89.5787 83.02 89.632 83.0867 89.632 83.22C89.632 83.4733 89.512 83.7533 89.272 84.06C89.072 84.3133 88.832 84.5333 88.552 84.72C88.272 84.9067 87.9654 85.0467 87.632 85.14C87.2987 85.2467 86.952 85.3 86.592 85.3ZM84.752 79.24H86.572C86.892 79.24 87.1654 79.2333 87.392 79.22C87.6187 79.2067 87.8387 79.18 88.052 79.14C88.1187 79.1267 88.1587 79.0867 88.172 79.02C88.1987 78.94 88.212 78.8333 88.212 78.7C88.212 78.3133 88.0387 77.9867 87.692 77.72C87.3587 77.44 86.9587 77.3 86.492 77.3C86.1854 77.3 85.8787 77.3933 85.572 77.58C85.2654 77.7533 85.012 77.9733 84.812 78.24C84.612 78.5067 84.512 78.7733 84.512 79.04C84.512 79.1733 84.592 79.24 84.752 79.24Z" fill="#F3F3F3"/>
<g clip-path="url(#clip1_1_31)">
<path d="M64.8124 24.1023C62.0268 19.2615 49.4333 18.2347 48.0115 18.1027L46.4155 18V47.8366C46.0421 47.5301 45.6442 47.2553 45.2258 47.0152C43.7686 46.2736 42.1779 45.838 40.5496 45.7346C38.9214 45.6313 37.2893 45.8623 35.7517 46.4137C29.8322 48.3647 25.9874 53.9389 27.2352 58.8383C27.5132 59.8745 27.9994 60.8417 28.6634 61.6796C29.3274 62.5174 30.1549 63.2081 31.0944 63.7084C32.7056 64.5761 34.5067 65.02 36.3321 64.9993C37.7858 64.9991 39.2303 64.7664 40.6121 64.3099C45.9368 62.5789 49.5639 57.9582 49.4043 53.5135V28.767C52.6416 29.0924 55.8306 29.7963 58.9074 30.8647C59.2672 31.0047 59.6673 30.9945 60.0197 30.8364C60.372 30.6782 60.6478 30.385 60.7863 30.0212C60.9248 29.6574 60.9148 29.2529 60.7583 28.8967C60.6019 28.5405 60.3118 28.2616 59.9521 28.1216C56.5108 26.9273 52.9404 26.1541 49.3173 25.8185V21.1832C54.1486 21.7112 60.9241 23.2075 62.2589 25.5838C65.1607 30.586 58.8784 36.3802 58.8204 36.4389C58.5565 36.7034 58.4031 37.0603 58.3918 37.4358C58.3805 37.8114 58.5121 38.177 58.7596 38.4573C59.0071 38.7376 59.3515 38.9112 59.7218 38.9423C60.0922 38.9734 60.4602 38.8597 60.75 38.6245C61.1418 38.3165 68.9039 31.2021 64.8124 24.1023ZM39.669 61.5228C38.4961 61.9529 37.2497 62.1408 36.0037 62.0753C34.7576 62.0098 33.5372 61.6922 32.4147 61.1414C31.8192 60.8361 31.2934 60.4082 30.8712 59.8853C30.4489 59.3624 30.1395 58.7559 29.9628 58.1049C29.0923 54.687 32.0665 50.6971 36.6077 49.2155C37.6853 48.86 38.8112 48.6769 39.9447 48.6728C41.2814 48.6455 42.6035 48.9582 43.7895 49.5822C44.385 49.8875 44.9108 50.3154 45.333 50.8383C45.7553 51.3612 46.0647 51.9677 46.2414 52.6187C47.199 56.0512 44.2247 60.0412 39.669 61.5228Z" fill="#F3F3F3"/>
</g>
</g>
<defs>
<clipPath id="clip0_1_31">
<rect width="93" height="101" fill="white"/>
</clipPath>
<clipPath id="clip1_1_31">
<rect width="58" height="58" fill="white" transform="translate(18 7)"/>
</clipPath>
</defs>
</svg>
