<svg width="29" height="31" viewBox="0 0 29 31" fill="none" xmlns="http://www.w3.org/2000/svg">
<g clip-path="url(#clip0_71_325)">
<path d="M10.125 21.6666H5.20149C4.78224 21.6666 4.57261 21.6666 4.39524 21.6846C3.5716 21.7666 2.80175 22.1312 2.21648 22.7165C1.6312 23.3017 1.26658 24.0716 1.18457 24.8952C1.16666 25.0726 1.16666 25.2822 1.16666 25.7015C1.16666 26.2031 1.16666 26.454 1.18816 26.6529C1.29217 27.5818 1.75504 28.4333 2.47804 29.0257C3.20103 29.6182 4.12691 29.9047 5.05816 29.8241C5.25524 29.8062 5.50249 29.7578 5.99341 29.6593L6.52374 29.5518C7.20457 29.4174 7.54678 29.3493 7.83345 29.2382C8.41076 29.0152 8.92049 28.6465 9.31297 28.168C9.70545 27.6895 9.9673 27.1175 10.073 26.5077C10.125 26.2031 10.125 25.8556 10.125 25.1622V9.62485C10.125 6.81194 10.125 5.40727 10.9366 4.41648C11.75 3.42569 13.1278 3.14977 15.887 2.59794L19.4703 1.88127C23.4353 1.08756 25.4187 0.691602 26.7302 1.7666C28.0417 2.8416 28.0417 4.86439 28.0417 8.90819V9.12498M28.0417 9.12498V18.0833M28.0417 9.12498L10.125 12.7083M28.0417 18.0833V21.5771C28.0417 22.274 28.0417 22.6198 27.9879 22.9244C27.8825 23.5338 27.6212 24.1055 27.2294 24.584C26.8375 25.0625 26.3286 25.4314 25.7519 25.6549C25.4634 25.766 25.123 25.8341 24.4404 25.9702L23.9101 26.0777C23.4192 26.1745 23.1737 26.2246 22.973 26.2408C22.0421 26.3209 21.1167 26.0341 20.3941 25.4417C19.6715 24.8493 19.2088 23.9981 19.1048 23.0695C19.0833 22.8724 19.0833 22.6216 19.0833 22.1199C19.0833 21.6989 19.0833 21.4893 19.1012 21.3119C19.1832 20.4883 19.5479 19.7184 20.1331 19.1331C20.7184 18.5478 21.4883 18.1832 22.3119 18.1012C22.4893 18.0833 22.6989 18.0833 23.1182 18.0833H28.0417Z" stroke="#f3f3f3"/>
</g>
<defs>
<clipPath id="clip0_71_325">
<rect width="29" height="31" fill="#f3f3f3"/>
</clipPath>
</defs>
</svg>
