<svg width="64" height="64" viewBox="0 0 64 64" fill="none" xmlns="http://www.w3.org/2000/svg">
<path d="M37.1296 31.4656L29.9424 28.112C29.3152 27.8208 28.8 28.1472 28.8 28.8416V35.1584C28.8 35.8528 29.3152 36.1792 29.9424 35.888L37.1264 32.5344C37.7568 32.24 37.7568 31.76 37.1296 31.4656ZM32 1.28003C15.0336 1.28003 1.28 15.0336 1.28 32C1.28 48.9664 15.0336 62.72 32 62.72C48.9664 62.72 62.72 48.9664 62.72 32C62.72 15.0336 48.9664 1.28003 32 1.28003ZM32 44.48C16.2752 44.48 16 43.0624 16 32C16 20.9376 16.2752 19.52 32 19.52C47.7248 19.52 48 20.9376 48 32C48 43.0624 47.7248 44.48 32 44.48Z" fill="#333333"/>
</svg>
