<svg width="64" height="64" viewBox="0 0 64 64"  xmlns="http://www.w3.org/2000/svg">
<symbol id="tw">
<path d="M32 1.28003C15.0336 1.28003 1.28003 15.0336 1.28003 32C1.28003 48.9664 15.0336 62.72 32 62.72C48.9664 62.72 62.72 48.9664 62.72 32C62.72 15.0336 48.9664 1.28003 32 1.28003ZM44.496 26.4448C44.5067 26.7072 44.512 26.9675 44.512 27.2256C44.512 35.2256 38.4288 44.4448 27.2992 44.4448C24.0107 44.4494 20.7907 43.5049 18.0256 41.7248C18.4971 41.7803 18.9782 41.807 19.4688 41.8048C22.304 41.8048 24.912 40.8416 26.9824 39.216C25.7207 39.1913 24.4982 38.7735 23.4852 38.0209C22.4722 37.2683 21.7192 36.2185 21.3312 35.0176C22.2373 35.1899 23.1707 35.1538 24.0608 34.912C22.6908 34.6362 21.4586 33.8945 20.5736 32.8129C19.6887 31.7314 19.2056 30.3767 19.2064 28.9792V28.9056C20.0224 29.3568 20.9568 29.632 21.9488 29.664C20.665 28.8094 19.7561 27.4966 19.4082 25.9941C19.0602 24.4915 19.2994 22.9128 20.0768 21.5808C21.5972 23.449 23.4927 24.9774 25.6408 26.0671C27.7889 27.1569 30.1417 27.7838 32.5472 27.9072C32.2414 26.609 32.373 25.2461 32.9217 24.0304C33.4703 22.8148 34.4052 21.8144 35.5811 21.1849C36.7569 20.5554 38.1078 20.3319 39.4237 20.5494C40.7396 20.7668 41.9468 21.4129 42.8576 22.3872C44.2117 22.1191 45.5103 21.6224 46.6976 20.9184C46.2463 22.3205 45.3014 23.511 44.0384 24.2688C45.2379 24.1243 46.4092 23.8018 47.5136 23.312C46.7042 24.5292 45.682 25.5904 44.496 26.4448Z"/>
</symbol>
</svg>
