<svg width="64" height="64" viewBox="0 0 64 64" xmlns="http://www.w3.org/2000/svg">
<symbol id="vk">
<path d="M32 1.28003C15.0336 1.28003 1.28 15.0336 1.28 32C1.28 48.9664 15.0336 62.72 32 62.72C48.9664 62.72 62.72 48.9664 62.72 32C62.72 15.0336 48.9664 1.28003 32 1.28003ZM43.8144 35.9392C43.8144 35.9392 46.5312 38.6208 47.2 39.8656C47.2192 39.8934 47.2309 39.9147 47.2352 39.9296C47.5061 40.384 47.5733 40.7435 47.4368 41.008C47.2128 41.4496 46.4448 41.6672 46.1824 41.6864H41.3824C41.0496 41.6864 40.352 41.6 39.5072 41.0176C38.8576 40.5632 38.2176 39.8176 37.5936 39.0912C36.6624 38.0096 35.856 37.0752 35.0432 37.0752C34.9399 37.0748 34.8373 37.091 34.7392 37.1232C34.1248 37.3216 33.3376 38.1984 33.3376 40.5344C33.3376 41.264 32.7616 41.6832 32.3552 41.6832H30.1568C29.408 41.6832 25.5072 41.4208 22.0512 37.776C17.8208 33.312 14.0128 24.3584 13.9808 24.2752C13.7408 23.696 14.2368 23.3856 14.7776 23.3856H19.6256C20.272 23.3856 20.4832 23.7792 20.6304 24.128C20.8032 24.5344 21.4368 26.1504 22.4768 27.968C24.1632 30.9312 25.1968 32.1344 26.0256 32.1344C26.181 32.1326 26.3336 32.0931 26.4704 32.0192C27.552 31.4176 27.3504 27.5616 27.3024 26.7616C27.3024 26.6112 27.2992 25.0368 26.7456 24.2816C26.3488 23.7344 25.6736 23.5264 25.264 23.4496C25.4298 23.2209 25.6482 23.0354 25.9008 22.9088C26.6432 22.5376 27.9808 22.4832 29.3088 22.4832H30.048C31.488 22.5024 31.8592 22.5952 32.3808 22.7264C33.4368 22.9792 33.4592 23.6608 33.3664 25.9936C33.3376 26.656 33.3088 27.4048 33.3088 28.288L33.2992 28.9024C33.2672 30.0896 33.2288 31.4368 34.0672 31.9904C34.1753 32.0617 34.3025 32.0986 34.432 32.096C34.7232 32.096 35.6 32.096 37.9744 28.0224C38.7039 26.7099 39.3402 25.3476 39.8784 23.9456C39.9264 23.8624 40.0672 23.6064 40.2336 23.5072C40.3577 23.4483 40.493 23.4166 40.6304 23.4144H46.3296C46.9504 23.4144 47.376 23.5072 47.456 23.7472C47.5968 24.128 47.4304 25.2896 44.8288 28.8128L43.6672 30.3456C41.3088 33.4368 41.3088 33.5936 43.8144 35.9392Z"/>
</symbol>
</svg>
