<svg width="89" height="86" viewBox="0 0 89 86"  xmlns="http://www.w3.org/2000/svg">
<symbol id="store">
<path d="M75.737 5.28858C74.9493 3.98414 73.8392 2.90441 72.5133 2.15331C71.1875 1.40221 69.6906 1.00503 68.1668 1H20.1665C17.0837 1 14.1819 2.643 12.5963 5.28858L0.631583 25.2254C0.21858 25.9123 0.000253653 26.6985 0 27.5C0.0176389 31.763 1.58777 35.8736 4.41667 39.0628V76.0833C4.41667 80.9549 8.37842 84.9167 13.25 84.9167H75.0833C79.9549 84.9167 83.9167 80.9549 83.9167 76.0833V39.0628C86.7456 35.8736 88.3157 31.763 88.3333 27.5C88.3331 26.6985 88.1148 25.9123 87.7018 25.2254L75.737 5.28858ZM79.4293 28.6086C79.1594 30.7422 78.1204 32.704 76.5072 34.1262C74.8939 35.5484 72.8173 36.3331 70.6667 36.3333C65.7951 36.3333 61.8333 32.3716 61.8333 27.5C61.8333 27.1997 61.7229 26.9347 61.6611 26.652L61.7494 26.6343L58.3883 9.83333H68.1668L79.4293 28.6086ZM38.9506 9.83333H49.3783L52.9691 27.7871C52.8145 32.5217 48.9367 36.3333 44.1667 36.3333C39.3967 36.3333 35.5188 32.5217 35.3643 27.7871L38.9506 9.83333ZM20.1665 9.83333H29.945L26.5883 26.6343L26.6767 26.652C26.6104 26.9347 26.5 27.1997 26.5 27.5C26.5 32.3716 22.5383 36.3333 17.6667 36.3333C15.5161 36.3331 13.4394 35.5484 11.8262 34.1262C10.2129 32.704 9.1739 30.7422 8.904 28.6086L20.1665 9.83333ZM35.3333 76.0833V62.8333H53V76.0833H35.3333ZM61.8333 76.0833V62.8333C61.8333 57.9617 57.8716 54 53 54H35.3333C30.4618 54 26.5 57.9617 26.5 62.8333V76.0833H13.25V44.5395C14.6678 44.9061 16.1297 45.1667 17.6667 45.1667C20.1741 45.1651 22.6524 44.6299 24.937 43.5965C27.2215 42.5632 29.2599 41.0553 30.9167 39.1732C34.1541 42.8479 38.8976 45.1667 44.1667 45.1667C49.4358 45.1667 54.1793 42.8479 57.4167 39.1732C59.0734 41.0553 61.1118 42.5632 63.3964 43.5965C65.6809 44.6299 68.1593 45.1651 70.6667 45.1667C72.2037 45.1667 73.6656 44.9061 75.0833 44.5395V76.0833H61.8333Z" fill="#f3f3f3"/>
</symbol>
</svg>
